<mxfile host="app.diagrams.net" modified="2022-10-14T07:30:29.984Z" agent="5.0 (Macintosh; Intel Mac OS X 10_15_7) AppleWebKit/537.36 (KHTML, like Gecko) Chrome/106.0.0.0 Safari/537.36" etag="CiUy6Cl-3x6ykA01CTqB" version="20.4.0" type="github">
  <diagram id="pyT570y1xebur0LrvDo1" name="第 1 页">
    <mxGraphModel dx="1426" dy="826" grid="1" gridSize="10" guides="1" tooltips="1" connect="1" arrows="1" fold="1" page="1" pageScale="1" pageWidth="827" pageHeight="1169" math="0" shadow="0">
      <root>
        <mxCell id="0" />
        <mxCell id="1" parent="0" />
        <mxCell id="vCLKR6QRai0c9_ksi0NQ-1" value="" style="rounded=1;whiteSpace=wrap;html=1;" parent="1" vertex="1">
          <mxGeometry x="160" y="210" width="620" height="320" as="geometry" />
        </mxCell>
        <mxCell id="vCLKR6QRai0c9_ksi0NQ-2" value="nginx" style="rounded=1;whiteSpace=wrap;html=1;fillColor=#fff2cc;strokeColor=#d6b656;arcSize=0;" parent="1" vertex="1">
          <mxGeometry x="260" y="240" width="50" height="250" as="geometry" />
        </mxCell>
        <mxCell id="vCLKR6QRai0c9_ksi0NQ-25" value="" style="edgeStyle=orthogonalEdgeStyle;rounded=0;orthogonalLoop=1;jettySize=auto;html=1;startArrow=none;" parent="1" source="vCLKR6QRai0c9_ksi0NQ-28" target="vCLKR6QRai0c9_ksi0NQ-24" edge="1">
          <mxGeometry relative="1" as="geometry" />
        </mxCell>
        <mxCell id="vCLKR6QRai0c9_ksi0NQ-3" value="express&lt;br&gt;" style="rounded=1;whiteSpace=wrap;html=1;fillColor=#d5e8d4;strokeColor=#82b366;" parent="1" vertex="1">
          <mxGeometry x="400" y="240" width="120" height="60" as="geometry" />
        </mxCell>
        <mxCell id="vCLKR6QRai0c9_ksi0NQ-26" value="" style="edgeStyle=orthogonalEdgeStyle;rounded=0;orthogonalLoop=1;jettySize=auto;html=1;" parent="1" source="vCLKR6QRai0c9_ksi0NQ-4" target="vCLKR6QRai0c9_ksi0NQ-24" edge="1">
          <mxGeometry relative="1" as="geometry" />
        </mxCell>
        <mxCell id="vCLKR6QRai0c9_ksi0NQ-4" value="express&lt;br&gt;" style="rounded=1;whiteSpace=wrap;html=1;fillColor=#d5e8d4;strokeColor=#82b366;" parent="1" vertex="1">
          <mxGeometry x="400" y="410" width="120" height="60" as="geometry" />
        </mxCell>
        <mxCell id="vCLKR6QRai0c9_ksi0NQ-18" value="" style="endArrow=classic;html=1;rounded=0;entryX=0;entryY=0.5;entryDx=0;entryDy=0;" parent="1" target="vCLKR6QRai0c9_ksi0NQ-3" edge="1">
          <mxGeometry relative="1" as="geometry">
            <mxPoint x="310" y="270" as="sourcePoint" />
            <mxPoint x="400" y="259.5" as="targetPoint" />
          </mxGeometry>
        </mxCell>
        <mxCell id="vCLKR6QRai0c9_ksi0NQ-19" value="4000" style="edgeLabel;resizable=0;html=1;align=center;verticalAlign=middle;" parent="vCLKR6QRai0c9_ksi0NQ-18" connectable="0" vertex="1">
          <mxGeometry relative="1" as="geometry">
            <mxPoint x="1" as="offset" />
          </mxGeometry>
        </mxCell>
        <mxCell id="vCLKR6QRai0c9_ksi0NQ-21" value="" style="endArrow=classic;html=1;rounded=0;entryX=0;entryY=0.5;entryDx=0;entryDy=0;" parent="1" target="vCLKR6QRai0c9_ksi0NQ-4" edge="1">
          <mxGeometry relative="1" as="geometry">
            <mxPoint x="310" y="440" as="sourcePoint" />
            <mxPoint x="479" y="419.5" as="targetPoint" />
          </mxGeometry>
        </mxCell>
        <mxCell id="vCLKR6QRai0c9_ksi0NQ-22" value="4001" style="edgeLabel;resizable=0;html=1;align=center;verticalAlign=middle;" parent="vCLKR6QRai0c9_ksi0NQ-21" connectable="0" vertex="1">
          <mxGeometry relative="1" as="geometry" />
        </mxCell>
        <mxCell id="vCLKR6QRai0c9_ksi0NQ-24" value="mongodb" style="rounded=0;whiteSpace=wrap;html=1;fillColor=#dae8fc;strokeColor=#6c8ebf;" parent="1" vertex="1">
          <mxGeometry x="610" y="340" width="120" height="60" as="geometry" />
        </mxCell>
        <mxCell id="vCLKR6QRai0c9_ksi0NQ-27" value="redis" style="rounded=0;whiteSpace=wrap;html=1;fillColor=#f8cecc;strokeColor=#b85450;" parent="1" vertex="1">
          <mxGeometry x="635" y="430" width="70" height="40" as="geometry" />
        </mxCell>
        <mxCell id="vCLKR6QRai0c9_ksi0NQ-33" value="" style="endArrow=classic;html=1;rounded=0;exitX=0;exitY=0.5;exitDx=0;exitDy=0;" parent="1" source="vCLKR6QRai0c9_ksi0NQ-1" edge="1">
          <mxGeometry relative="1" as="geometry">
            <mxPoint x="360" y="420" as="sourcePoint" />
            <mxPoint x="260" y="370" as="targetPoint" />
          </mxGeometry>
        </mxCell>
        <mxCell id="vCLKR6QRai0c9_ksi0NQ-34" value="80" style="edgeLabel;resizable=0;html=1;align=center;verticalAlign=middle;" parent="vCLKR6QRai0c9_ksi0NQ-33" connectable="0" vertex="1">
          <mxGeometry relative="1" as="geometry" />
        </mxCell>
        <mxCell id="vCLKR6QRai0c9_ksi0NQ-37" value="" style="endArrow=classic;html=1;rounded=0;" parent="1" edge="1">
          <mxGeometry relative="1" as="geometry">
            <mxPoint x="30" y="369.5" as="sourcePoint" />
            <mxPoint x="140" y="369.5" as="targetPoint" />
          </mxGeometry>
        </mxCell>
        <mxCell id="vCLKR6QRai0c9_ksi0NQ-38" value="3000" style="edgeLabel;resizable=0;html=1;align=center;verticalAlign=middle;" parent="vCLKR6QRai0c9_ksi0NQ-37" connectable="0" vertex="1">
          <mxGeometry relative="1" as="geometry" />
        </mxCell>
        <mxCell id="vCLKR6QRai0c9_ksi0NQ-39" value="local" style="edgeLabel;resizable=0;html=1;align=left;verticalAlign=bottom;" parent="vCLKR6QRai0c9_ksi0NQ-37" connectable="0" vertex="1">
          <mxGeometry x="-1" relative="1" as="geometry" />
        </mxCell>
        <mxCell id="vCLKR6QRai0c9_ksi0NQ-28" value="redis" style="rounded=0;whiteSpace=wrap;html=1;fillColor=#f8cecc;strokeColor=#b85450;" parent="1" vertex="1">
          <mxGeometry x="635" y="250" width="70" height="40" as="geometry" />
        </mxCell>
        <mxCell id="vCLKR6QRai0c9_ksi0NQ-40" value="" style="edgeStyle=orthogonalEdgeStyle;rounded=0;orthogonalLoop=1;jettySize=auto;html=1;endArrow=none;" parent="1" source="vCLKR6QRai0c9_ksi0NQ-3" target="vCLKR6QRai0c9_ksi0NQ-28" edge="1">
          <mxGeometry relative="1" as="geometry">
            <mxPoint x="520" y="280" as="sourcePoint" />
            <mxPoint x="670" y="325" as="targetPoint" />
          </mxGeometry>
        </mxCell>
      </root>
    </mxGraphModel>
  </diagram>
</mxfile>
